<?xml version="1.0" encoding="UTF-8"?>
<svg id="Capa_2" data-name="Capa 2" xmlns="http://www.w3.org/2000/svg" xmlns:xlink="http://www.w3.org/1999/xlink" viewBox="0 0 180 180">
  <defs>
    <style>
      .cls-1 {
        fill: #fff;
      }

      .cls-2 {
        fill: url(#Degradado_sin_nombre_25);
      }
    </style>
    <linearGradient id="Degradado_sin_nombre_25" data-name="Degradado sin nombre 25" x1="11.88" y1="11.88" x2="168.12" y2="168.12" gradientUnits="userSpaceOnUse">
      <stop offset="0" stop-color="#0007d4"/>
      <stop offset="1" stop-color="#000"/>
    </linearGradient>
  </defs>
  <g id="Capa_1-2" data-name="Capa 1">
    <g>
      <rect class="cls-2" width="180" height="180" rx="40.55" ry="40.55"/>
      <g>
        <path class="cls-1" d="M137.78,77.71c-3.4,.29-6.58,.97-9.55,2.04-2.97,1.07-6.24,2.24-9.84,3.5-1.55-2.62-3.72-4.93-6.49-6.92-2.77-1.99-5.56-3.13-8.38-3.42,1.17-.97,2.62-2.23,4.37-3.79,1.75-1.55,3.52-3.3,5.32-5.25,1.8-1.94,3.52-4.06,5.17-6.34,1.65-2.28,2.96-4.69,3.94-7.21,.97-2.52,1.04-5.2,.22-8.02-.83-2.82-2.24-5.41-4.23-7.8-1.99-2.38-4.4-4.37-7.21-5.98-2.82-1.6-5.74-2.5-8.75-2.7-3.79-.19-7.92,.44-12.39,1.9-4.47,1.46-8.94,3.52-13.41,6.19-4.47,2.67-8.82,5.73-13.05,9.18-4.23,3.45-7.99,7.02-11.3,10.71-3.3,3.69-6,7.34-8.09,10.93-2.09,3.6-3.23,6.85-3.42,9.77-.2,3.4,.63,6.19,2.48,8.38,1.84,2.19,3.96,3.72,6.34,4.59,2.38,.87,4.64,1.07,6.78,.58,2.14-.49,3.4-1.75,3.79-3.79-3.5,.49-5.54-.29-6.12-2.33-.58-2.04,0-4.81,1.75-8.31,1.75-3.5,4.52-7.43,8.31-11.81s8.26-8.6,13.41-12.68c-1.46,3.11-3.26,7.14-5.39,12.1-2.14,4.96-4.28,10.08-6.41,15.38-2.14,5.3-4.15,10.49-6.05,15.59s-3.38,9.35-4.44,12.75c-.58,1.65-.49,3.09,.29,4.3,.78,1.22,1.84,2.16,3.21,2.84,1.07,.49,2.21,.73,3.42,.73s2.45-.82,3.72-2.48c.68-.97,1.84-2.43,3.5-4.37,1.65-1.94,3.57-4.03,5.76-6.27,2.19-2.23,4.52-4.52,7-6.85,2.48-2.33,4.96-4.37,7.43-6.12,2.48-1.75,4.83-3.06,7.07-3.94,2.23-.87,4.13-1.02,5.68-.44,.78,.29,1.36,.83,1.75,1.6,.39,.78,.66,1.55,.8,2.33,.15,.78,.19,1.51,.15,2.19-.05,.68-.12,1.07-.22,1.17-3.79,2.04-7.99,4.66-12.61,7.87-4.62,3.21-9.21,6.73-13.77,10.57-4.57,3.84-8.89,7.9-12.97,12.17-4.08,4.28-7.48,8.45-10.2,12.53-3.01,4.66-4.49,8.7-4.44,12.1,.05,3.4,1.21,5.9,3.5,7.51,2.28,1.6,5.46,2.14,9.55,1.6,4.08-.54,8.6-2.41,13.55-5.61,5.25-3.3,10.3-7.21,15.16-11.73,4.86-4.52,9.2-9.3,13.05-14.36,3.84-5.05,7.04-10.15,9.62-15.3,2.57-5.15,4.15-10.06,4.74-14.72,1.84-.97,4.27-1.99,7.29-3.06,3.01-1.07,6.07-1.94,9.18-2.62,.97-.19,1.7-.78,2.19-1.75,.48-.97,.75-2.02,.8-3.13,.05-1.12-.05-2.09-.29-2.92-.24-.82-.66-1.19-1.24-1.09h0Zm-37.6-17.85c-3.01,3.45-6.05,6.73-9.11,9.84-3.06,3.11-5.9,5.93-8.53,8.45-2.62,2.53-4.52,4.42-5.68,5.68,.97-2.23,2.06-4.76,3.28-7.58,1.21-2.82,2.45-5.71,3.72-8.67,1.26-2.96,2.55-5.88,3.86-8.74,1.31-2.87,2.6-5.51,3.86-7.94,.39-.78,.44-1.55,.15-2.33-.29-.78-.78-1.48-1.46-2.11-.68-.63-1.46-1.14-2.33-1.53-.87-.39-1.6-.63-2.19-.73,2.04-1.46,4.25-2.77,6.63-3.94,2.38-1.17,4.69-2.11,6.92-2.84,2.23-.73,4.27-1.21,6.12-1.46,1.84-.24,3.21-.07,4.08,.51,1.94,1.17,2.65,2.97,2.11,5.39-.54,2.43-1.82,5.17-3.86,8.23-2.04,3.06-4.57,6.32-7.58,9.77h0Zm-2.7,48.9c-1.6,2.33-3.55,4.86-5.83,7.58-2.28,2.72-4.79,5.46-7.51,8.23-2.72,2.77-5.39,5.37-8.02,7.8-2.62,2.43-5.1,4.54-7.43,6.34-2.33,1.8-4.28,3.04-5.83,3.72,.78-3.01,2.62-6.41,5.54-10.2,2.92-3.79,6.27-7.53,10.06-11.22,3.79-3.69,7.7-7.14,11.73-10.35,4.03-3.21,7.51-5.73,10.42-7.58-.49,1.46-1.53,3.35-3.13,5.68h0Z"/>
        <path class="cls-1" d="M149.37,75.75h0c-1.59-5.37-6.07-8.84-11.41-8.84-.44,0-.89,.03-1.29,.07-4.25,.38-8.31,1.26-12.09,2.62-.87,.31-1.77,.64-2.7,.97l-.09-.08c1.85-2.06,3.65-4.28,5.35-6.64,2.19-3.03,3.96-6.28,5.27-9.67,1.83-4.77,2-9.79,.5-14.92-1.24-4.23-3.36-8.16-6.31-11.69-2.81-3.36-6.23-6.19-10.15-8.43-4.23-2.41-8.73-3.78-13.39-4.09h-.14c-5.06-.27-10.58,.54-16.28,2.4-5.22,1.7-10.47,4.12-15.6,7.19-4.89,2.93-9.71,6.32-14.33,10.08-4.65,3.79-8.86,7.79-12.51,11.88-3.78,4.22-6.93,8.5-9.38,12.7-2.96,5.1-4.55,9.83-4.86,14.48v.09c-.36,6.15,1.37,11.66,5,15.96,3.06,3.62,6.72,6.24,10.86,7.76,.12,.04,.23,.09,.35,.13-.47,1.39-.9,2.68-1.26,3.84-1.61,4.75-1.1,9.54,1.44,13.5,1.27,1.99,2.87,3.68,4.77,5.05-1.82,2.26-3.48,4.5-4.95,6.71l-.08,.12c-4.23,6.56-6.25,12.48-6.17,18.1,.1,6.84,2.97,12.59,8.08,16.18,3.55,2.5,7.88,3.76,12.85,3.76h0c1.37,0,2.82-.1,4.29-.29,5.73-.75,11.61-3.11,17.95-7.21,5.77-3.64,11.39-7.99,16.71-12.93,5.29-4.92,10.09-10.21,14.29-15.73,4.22-5.56,7.82-11.28,10.68-17.01,2.01-4.02,3.54-8.02,4.57-11.92,.45-.17,.92-.34,1.41-.52,2.55-.91,5.19-1.66,7.81-2.24,4.21-.88,7.62-3.53,9.6-7.48,1.16-2.32,1.81-4.85,1.93-7.5,.1-2.29-.15-4.45-.72-6.43h0Zm-2.51,6.28c-.1,2.19-.63,4.28-1.59,6.19-1.52,3.04-4.14,5.09-7.39,5.76-2.77,.61-5.53,1.4-8.21,2.35-.81,.29-1.57,.57-2.28,.85l-.78,.31-.2,.82c-.96,3.92-2.49,7.98-4.53,12.07-2.77,5.55-6.26,11.1-10.36,16.5-4.08,5.37-8.76,10.53-13.92,15.32-5.17,4.81-10.63,9.03-16.25,12.57-5.95,3.84-11.39,6.04-16.63,6.73-1.34,.18-2.64,.26-3.87,.26h0c-4.3,0-8-1.07-10.99-3.18-4.24-2.98-6.63-7.8-6.71-13.58-.07-4.97,1.78-10.3,5.65-16.29l.06-.1c1.7-2.55,3.68-5.19,5.89-7.83l1.23-1.47-1.66-.97c-2.16-1.25-3.92-2.94-5.25-5.03-2-3.12-2.39-6.92-1.09-10.75,.5-1.59,1.1-3.39,1.78-5.36l.56-1.62-1.66-.46c-.58-.16-1.16-.35-1.74-.56-3.62-1.33-6.82-3.62-9.51-6.81-3.08-3.65-4.55-8.38-4.25-13.68v-.07c.28-4.13,1.73-8.4,4.44-13.06,2.33-4.02,5.36-8.11,8.99-12.17,3.55-3.96,7.63-7.84,12.15-11.53,4.5-3.67,9.19-6.97,13.95-9.81,4.93-2.95,9.96-5.27,14.94-6.89,4.68-1.53,9.18-2.3,13.38-2.3,.58,0,1.17,.02,1.72,.04h.12c4.15,.28,8.18,1.51,11.99,3.67,3.59,2.04,6.71,4.63,9.27,7.69,2.66,3.18,4.57,6.72,5.68,10.52,1.3,4.43,1.16,8.76-.41,12.85-1.2,3.13-2.84,6.14-4.87,8.93-1.82,2.52-3.76,4.89-5.75,7.04l-1.63,1.75,1.3,1.1c.66,.56,1.3,1.14,1.9,1.74l.72,.72,.96-.34c1.27-.45,2.49-.89,3.65-1.31,3.51-1.27,7.31-2.09,11.32-2.45,.32-.04,.64-.06,.97-.06,3.87,0,7.13,2.56,8.3,6.52,.48,1.64,.68,3.45,.6,5.38h0Z"/>
      </g>
    </g>
  </g>
</svg>